<svg id="Laag_3" data-name="Laag 3" xmlns="http://www.w3.org/2000/svg" viewBox="0 0 159.34 237.31"><defs><style>.cls-1{fill:#ff4054;}</style></defs><title>S</title><path id="S" class="cls-1" d="M74.72,17.59h66.72c-.8,0-1.23,7.32-1.24,7.84A43.93,43.93,0,0,0,145,45.8c2.83,5.75,7,10.4,11.07,15.27l11.2,13.36,17.93,21.4.5.6L198,111.52c6,7.29,10.5,16.37,14.18,25,9.32,21.77,10,47.2.77,69.12-4.42,10.55-10.79,20.91-19.67,28.28a90.17,90.17,0,0,1-31.14,16.56c-10.83,3.3-22.36,4.47-33.64,4.47H60.22V198.1l62.36-.4s17.08.4,25.81-13.5c5.9-9.37,4.59-19.69-.86-28.81a153,153,0,0,0-12.92-18.07c-3.1-3.8-6.33-7.5-9.65-11.11L88,82.52S75.31,67.43,72.14,48C72.14,48,69.75,34.47,74.72,17.59Z" transform="translate(-60.22 -17.59)"/></svg>